<?xml version="1.0" encoding="utf-8"?>
<!-- Generator: Adobe Illustrator 22.0.1, SVG Export Plug-In . SVG Version: 6.00 Build 0)  -->
<svg version="1.1" id="Ebene_1" xmlns="http://www.w3.org/2000/svg" xmlns:xlink="http://www.w3.org/1999/xlink" x="0px" y="0px"
	 viewBox="0 0 175.8 82.5" style="enable-background:new 0 0 175.8 82.5;" xml:space="preserve">
<style type="text/css">
	.st0{fill:#0098AA;}
	.st1{fill:#FA7846;}
</style>
<g>
	<path class="st0" d="M142.4,74.6c-25.1-20-28-35.5-28.3-44.9c-0.3-8.1,2.6-15.7,8.7-22.9C87,37.6,142.4,80.9,142.4,80.9
		s26-18.2,30.7-39.4C170.5,46.8,160.3,64,142.4,74.6z"/>
</g>
<g>
	<path class="st0" d="M56.6,27.9c0-0.1,0.1-0.1,0.2-0.1H59c0.1,0,0.1,0,0.2,0.1c0,0.1,0,0.1,0,0.2l-4.7,12.6c0,0.1-0.1,0.1-0.2,0.1
		h-1.6c-0.1,0-0.1,0-0.2-0.1L47.8,28c0-0.1,0-0.1,0-0.2c0,0,0.1-0.1,0.1-0.1h2.2c0.1,0,0.2,0,0.2,0.1l3.1,8.3L56.6,27.9z"/>
	<path class="st0" d="M66.6,27.9c1.8,0,3.3,0.6,4.6,1.9c1.3,1.3,1.9,2.8,1.9,4.6c0,1.8-0.6,3.3-1.9,4.6c-1.3,1.3-2.8,1.9-4.6,1.9
		c-1.8,0-3.3-0.6-4.6-1.9c-1.3-1.3-1.9-2.8-1.9-4.6c0-1.8,0.6-3.3,1.9-4.6C63.3,28.5,64.9,27.9,66.6,27.9z M66.6,38.3
		c1.1,0,2.1-0.4,2.8-1.2c0.8-0.8,1.2-1.7,1.2-2.9c0-1.1-0.4-2.1-1.2-2.8c-0.8-0.8-1.7-1.2-2.8-1.2c-1.1,0-2.1,0.4-2.8,1.2
		c-0.8,0.8-1.2,1.7-1.2,2.8c0,1.1,0.4,2.1,1.2,2.9C64.6,37.9,65.5,38.3,66.6,38.3z"/>
	<path class="st0" d="M85.9,28.1c0-0.1,0.1-0.2,0.2-0.2h2c0.1,0,0.2,0.1,0.2,0.2v12.5c0,1.8-0.6,3.3-1.9,4.6
		c-1.3,1.3-2.8,1.9-4.6,1.9c-1.1,0-2.2-0.3-3.1-0.8c-1-0.6-1.8-1.3-2.3-2.2c-0.1-0.1,0-0.2,0.1-0.3l1.8-1c0.1-0.1,0.2,0,0.3,0.1
		c0.5,0.8,1.1,1.3,2,1.6c0.9,0.3,1.7,0.4,2.6,0.1c0.8-0.3,1.5-0.8,2.1-1.5c0.5-0.7,0.8-1.6,0.8-2.5v-1.2c-1.2,1-2.6,1.5-4.1,1.5
		c-0.9,0-1.8-0.2-2.6-0.5c-0.8-0.4-1.5-0.8-2.1-1.5c-1.3-1.4-1.9-3-1.7-4.8c0.1-1.6,0.8-3,1.9-4.2c1.2-1.2,2.6-1.8,4.3-1.8
		c1.6-0.1,3.1,0.4,4.3,1.5V28.1z M81.8,38.4c1.1,0,2.1-0.4,2.8-1.2c0.8-0.8,1.2-1.7,1.2-2.8c0-1.1-0.4-2.1-1.2-2.9
		c-0.8-0.8-1.7-1.2-2.8-1.2c-1.1,0-2.1,0.4-2.8,1.2c-0.8,0.8-1.2,1.7-1.2,2.9c0,1.1,0.4,2.1,1.2,2.8C79.8,38,80.7,38.4,81.8,38.4z"
		/>
	<path class="st0" d="M92.8,40.8c-0.1,0-0.2-0.1-0.2-0.2V20.4c0-0.1,0.1-0.2,0.2-0.2h2.1c0.1,0,0.2,0.1,0.2,0.2v20.2
		c0,0.1-0.1,0.2-0.2,0.2H92.8z"/>
</g>
<g>
	<path class="st1" d="M15.1,56.2c0-0.1,0.1-0.1,0.1-0.1H16c0.1,0,0.1,0,0.1,0.1c0,0,0,0.1,0,0.1l-3.3,9.5c0,0.1-0.1,0.1-0.1,0.1
		h-0.6c-0.1,0-0.1,0-0.1-0.1l-2.7-8.2l-2.7,8.2c0,0.1-0.1,0.1-0.1,0.1H5.8c-0.1,0-0.1,0-0.1-0.1l-3.3-9.5c0-0.1,0-0.1,0-0.1
		c0,0,0.1-0.1,0.1-0.1h0.8c0.1,0,0.1,0,0.1,0.1l2.7,7.8l2.5-7.8c0-0.1,0.1-0.1,0.1-0.1h0.8c0.1,0,0.1,0,0.1,0.1l2.6,7.8L15.1,56.2z"
		/>
	<path class="st1" d="M18.5,64.5c-1-1-1.4-2.1-1.4-3.5c0-1.4,0.5-2.5,1.4-3.5c0.9-0.9,2-1.4,3.4-1.4c1.3,0,2.4,0.5,3.3,1.4
		c0.9,0.9,1.4,2.1,1.4,3.4v0.2c0,0.1,0,0.1-0.1,0.1l-8.1,0.7c0.2,0.8,0.7,1.5,1.4,2c0.7,0.5,1.5,0.8,2.3,0.8c0.7,0,1.3-0.2,1.9-0.5
		c0.6-0.3,1-0.7,1.4-1.3c0.1-0.1,0.1-0.1,0.2-0.1l0.7,0.4c0.1,0.1,0.1,0.1,0.1,0.2c-0.5,0.7-1,1.3-1.8,1.7c-0.7,0.4-1.5,0.6-2.4,0.6
		C20.6,65.9,19.4,65.5,18.5,64.5z M19.2,58.3c-0.7,0.7-1.1,1.6-1.1,2.7l7.3-0.6c-0.1-0.9-0.5-1.7-1.2-2.3c-0.7-0.6-1.5-0.9-2.5-0.9
		C20.7,57.2,19.9,57.6,19.2,58.3z"/>
	<path class="st1" d="M33.7,56.2c1.1,0.1,2.1,0.6,2.9,1.4c0.8,0.8,1.3,1.8,1.4,2.9c0.1,0.7,0,1.4-0.2,2.1c-0.2,0.6-0.5,1.2-1,1.7
		c-0.5,0.5-1,0.9-1.6,1.2c-0.6,0.3-1.3,0.4-2,0.4c-0.8,0-1.5-0.2-2.1-0.5c-0.7-0.3-1.2-0.8-1.7-1.3v1.7c0,0.1-0.1,0.2-0.2,0.2h-0.7
		c-0.1,0-0.2-0.1-0.2-0.2V50c0-0.1,0.1-0.2,0.2-0.2h0.7c0.1,0,0.2,0.1,0.2,0.2v8c0.5-0.6,1.1-1.1,1.9-1.5
		C32,56.2,32.9,56.1,33.7,56.2z M33.2,64.9c1.1,0,2-0.4,2.7-1.1C36.6,63,37,62.1,37,61c0-1.1-0.4-2-1.1-2.7
		c-0.8-0.7-1.7-1.1-2.7-1.1c-1.1,0-2,0.4-2.7,1.1c-0.7,0.8-1.1,1.7-1.1,2.7c0,1,0.4,1.9,1.1,2.7C31.2,64.5,32.1,64.9,33.2,64.9z"/>
	<path class="st1" d="M49.2,65.8c0,0.1-0.1,0.2-0.2,0.2h-0.8c-0.1,0-0.1-0.1-0.1-0.2v-1.7c-0.5,0.6-1,1-1.7,1.3
		c-0.7,0.3-1.4,0.5-2.2,0.5c-1.3,0-2.5-0.5-3.5-1.4c-1-1-1.4-2.1-1.4-3.5c0-1.4,0.5-2.5,1.4-3.5c1-1,2.1-1.4,3.5-1.4
		c0.8,0,1.5,0.2,2.2,0.5c0.7,0.3,1.2,0.8,1.7,1.4v-8c0-0.1,0-0.2,0.1-0.2H49c0.1,0,0.2,0.1,0.2,0.2V65.8z M44.3,64.9
		c1.1,0,2-0.4,2.7-1.1c0.7-0.7,1.1-1.6,1.1-2.7c0-1.1-0.4-2-1.1-2.7c-0.7-0.7-1.7-1.1-2.7-1.1c-1.1,0-2,0.4-2.7,1.1
		c-0.7,0.8-1.1,1.7-1.1,2.7c0,1,0.4,1.9,1.1,2.7C42.3,64.5,43.2,64.9,44.3,64.9z"/>
	<path class="st1" d="M52.8,64.5c-1-1-1.4-2.1-1.4-3.5c0-1.4,0.5-2.5,1.4-3.5c0.9-0.9,2-1.4,3.4-1.4c1.3,0,2.4,0.5,3.3,1.4
		c0.9,0.9,1.4,2.1,1.4,3.4v0.2c0,0.1,0,0.1-0.1,0.1l-8.1,0.7c0.2,0.8,0.7,1.5,1.4,2c0.7,0.5,1.5,0.8,2.3,0.8c0.7,0,1.3-0.2,1.9-0.5
		c0.6-0.3,1-0.7,1.4-1.3c0.1-0.1,0.1-0.1,0.2-0.1l0.7,0.4c0.1,0.1,0.1,0.1,0.1,0.2c-0.5,0.7-1,1.3-1.8,1.7c-0.7,0.4-1.5,0.6-2.4,0.6
		C54.9,65.9,53.7,65.5,52.8,64.5z M53.5,58.3c-0.7,0.7-1.1,1.6-1.1,2.7l7.3-0.6c-0.1-0.9-0.5-1.7-1.2-2.3c-0.7-0.6-1.5-0.9-2.5-0.9
		C55,57.2,54.1,57.6,53.5,58.3z"/>
	<path class="st1" d="M67.9,57.8c-0.1,0.1-0.1,0.1-0.2,0c-0.1-0.1-0.1-0.1-0.2-0.2c-0.1-0.1-0.2-0.1-0.3-0.2
		c-0.3-0.1-0.5-0.2-0.8-0.3c-0.2,0-0.4-0.1-0.5-0.1h-0.1h-0.1c-0.1,0-0.1,0-0.2,0h-0.1l-0.1,0c-0.2,0-0.4,0.1-0.6,0.1
		c-0.2,0.1-0.4,0.2-0.5,0.3c-0.1,0.1-0.2,0.3-0.3,0.5l0,0.1l0,0.1c0,0.1,0,0.1,0,0.2l0,0.1v0v0l0,0v0.1v0.1l0,0.1c0,0,0,0,0,0.1
		l0,0.1l0,0.1l0,0.1l0,0.1l0,0.1l0.1,0.1l0.1,0.1c0.1,0.2,0.3,0.3,0.6,0.5c0.2,0.1,0.5,0.2,0.8,0.4l0.1,0l0.1,0.1l0.2,0.1l0.4,0.2
		c0.4,0.2,0.6,0.3,0.9,0.5c0.3,0.2,0.6,0.5,0.8,0.7c0.3,0.3,0.4,0.7,0.5,1l0,0.1c0,0.1,0,0.1,0,0.1l0,0.1v0.1v0v0v0.1v0.1
		c0,0,0,0.1,0,0.1l0,0.1l0,0.1c-0.1,0.4-0.2,0.7-0.5,1c-0.2,0.3-0.5,0.5-0.8,0.7c-0.3,0.1-0.5,0.2-0.9,0.3c-0.3,0.1-0.6,0.1-0.8,0.1
		h-0.1h0h0h0l-0.2,0c0,0-0.1,0-0.2,0h-0.1l-0.1,0c-0.2,0-0.4-0.1-0.7-0.1c-0.4-0.1-0.7-0.3-1-0.4c-0.2-0.1-0.3-0.2-0.4-0.3
		c-0.1-0.1-0.2-0.1-0.3-0.2c-0.1-0.1-0.1-0.2,0-0.2l0.5-0.5c0.1-0.1,0.1-0.1,0.2,0c0.1,0.1,0.1,0.1,0.2,0.1c0.1,0.1,0.2,0.1,0.3,0.2
		c0.3,0.1,0.5,0.3,0.8,0.3c0.2,0.1,0.4,0.1,0.5,0.1l0.1,0h0.1c0.1,0,0.1,0,0.2,0l0.2,0h0h0l0.1,0c0.2,0,0.4,0,0.6-0.1
		c0.2-0.1,0.4-0.1,0.6-0.2c0.4-0.2,0.6-0.5,0.7-1l0-0.1l0-0.1c0,0,0-0.1,0-0.1v-0.1v-0.1l0,0v0v0c0,0,0,0,0,0l0,0v-0.1
		c0,0,0-0.1,0-0.1l0-0.1c0-0.2-0.1-0.4-0.3-0.6c-0.3-0.3-0.7-0.6-1.4-0.9l-0.4-0.2l-0.2-0.1l-0.1,0l-0.1,0c-0.4-0.2-0.7-0.3-0.9-0.4
		c-0.3-0.2-0.6-0.4-0.8-0.7c0,0-0.1-0.1-0.1-0.1l-0.1-0.1c-0.1-0.1-0.1-0.2-0.1-0.3l-0.1-0.1c0-0.1,0-0.1,0-0.1
		c0-0.1-0.1-0.2-0.1-0.3l0-0.2v-0.1l0-0.1v0v0v0v0l0-0.1c0-0.1,0-0.2,0-0.3l0-0.1l0-0.1c0.1-0.4,0.3-0.7,0.5-0.9
		c0.2-0.2,0.5-0.4,0.8-0.5c0.2-0.1,0.5-0.2,0.8-0.2h0.1l0.1,0c0.1,0,0.1,0,0.2,0h0.2H66c0.2,0,0.4,0,0.7,0.1
		c0.4,0.1,0.7,0.2,1.1,0.4c0.1,0.1,0.2,0.1,0.4,0.2c0.1,0.1,0.2,0.1,0.2,0.2c0,0,0.1,0,0.1,0.1c0.1,0.1,0.1,0.1,0,0.2L67.9,57.8z"/>
	<path class="st1" d="M72.1,53.6c-0.1,0.1-0.3,0.2-0.5,0.2c-0.2,0-0.4-0.1-0.5-0.2c-0.2-0.1-0.2-0.3-0.2-0.5c0-0.2,0.1-0.4,0.2-0.5
		c0.1-0.1,0.3-0.2,0.5-0.2c0.2,0,0.4,0.1,0.5,0.2s0.2,0.3,0.2,0.5C72.3,53.3,72.2,53.4,72.1,53.6z M71.2,65.9
		c-0.1,0-0.1-0.1-0.1-0.2v-9.4c0-0.1,0-0.2,0.1-0.2h0.8c0.1,0,0.2,0.1,0.2,0.2v9.4c0,0.1-0.1,0.2-0.2,0.2H71.2z"/>
	<path class="st1" d="M83.4,64c-0.1,0.2-0.3,0.3-0.4,0.5c-1,1-2.1,1.4-3.5,1.4c-1.4,0-2.5-0.5-3.5-1.4c-1-1-1.4-2.1-1.4-3.5
		c0-1.4,0.5-2.5,1.4-3.5c1-1,2.1-1.4,3.5-1.4c1.3,0,2.5,0.5,3.5,1.4c0.2,0.2,0.3,0.3,0.4,0.5v-1.8c0-0.1,0-0.2,0.1-0.2h0.8
		c0.1,0,0.2,0.1,0.2,0.2v10c0,1.4-0.5,2.5-1.4,3.5c-1,1-2.1,1.4-3.5,1.4c-0.8,0-1.6-0.2-2.4-0.6c-0.7-0.4-1.3-1-1.8-1.7
		c-0.1-0.1,0-0.2,0.1-0.2l0.7-0.4c0.1-0.1,0.2,0,0.2,0.1c0.4,0.7,1.1,1.2,1.8,1.5c0.8,0.3,1.6,0.4,2.4,0.1c0.8-0.2,1.5-0.7,2-1.4
		c0.5-0.7,0.8-1.5,0.8-2.4V64z M76.8,58.3C76,59.1,75.6,60,75.6,61c0,1.1,0.4,2,1.1,2.7c0.8,0.8,1.7,1.1,2.7,1.1
		c1.1,0,2-0.4,2.7-1.1c0.7-0.7,1.1-1.7,1.1-2.7c0-1.1-0.4-2-1.1-2.7c-0.8-0.8-1.7-1.1-2.7-1.1C78.4,57.2,77.5,57.6,76.8,58.3z"/>
	<path class="st1" d="M95.8,65.8c0,0.1-0.1,0.2-0.2,0.2h-0.8c-0.1,0-0.2-0.1-0.2-0.2v-0.4c0-0.7,0-1.5,0-2.5v-0.3v-0.3
		c0-0.2,0-0.4,0-0.6c0-0.5,0-0.9,0-1.3V60c0-0.1,0-0.2,0-0.3c0-0.2-0.1-0.4-0.1-0.6c-0.1-0.4-0.3-0.8-0.6-1.1
		c-0.3-0.3-0.6-0.5-1-0.7c-0.2-0.1-0.4-0.1-0.6-0.1l-0.1,0l-0.1,0l-0.1,0c0,0-0.1,0-0.1,0H92h0h0h-0.1h-0.1c-0.4,0-0.8,0.1-1.1,0.3
		c-0.3,0.2-0.6,0.4-0.8,0.6c-0.2,0.2-0.4,0.4-0.5,0.7c-0.1,0.2-0.2,0.4-0.2,0.6c0,0.1,0,0.2,0,0.2l0,0.1l0,0.1c0,0.1,0,0.1,0,0.2
		l0,0.2v5.5c0,0.1-0.1,0.2-0.2,0.2h-0.8c-0.1,0-0.1-0.1-0.1-0.2v-9.5c0-0.1,0-0.2,0.1-0.2h0.8c0.1,0,0.2,0.1,0.2,0.2v1.3l0.1-0.1
		c0.3-0.3,0.7-0.6,1.1-0.8c0.5-0.2,1-0.4,1.5-0.4l0.1,0h0.1H92h0.1c0,0,0.1,0,0.1,0l0.1,0l0.1,0l0.1,0c0.3,0,0.5,0.1,0.8,0.2
		c0.5,0.2,1,0.5,1.4,0.9c0.4,0.4,0.7,0.9,0.9,1.4c0.1,0.3,0.2,0.5,0.2,0.8c0,0.1,0,0.3,0,0.4v0.4c0,0.2,0,0.4,0,0.7
		c0,0.2,0,0.4,0,0.7V62v0.3c0,0.2,0,0.4,0,0.6c0,1,0,1.8,0,2.5V65.8z"/>
</g>
<g>
	<path class="st1" d="M132.3,2.3C92.6,34,142.5,69.9,142.5,69.9s34-21.1,31.4-45.7c-6.3,25-31.4,35.9-31.4,35.9
		C107.3,32.4,125.6,10,132.3,2.3z"/>
</g>
</svg>
